<svg xmlns="http://www.w3.org/2000/svg" fill="none" viewBox="0 0 63 63"><circle cx="31.5" cy="31.5" r="25.354" fill="#121D2E" opacity=".2"/><circle cx="31.5" cy="31.5" r="31.5" fill="#121D2E" opacity=".1"/><circle cx="31.5" cy="31.5" r="19.207" fill="#121D2E"/><path fill="#fff" d="M18.8 36.878v-2.865h.556l1.237 2.022H20.3l1.215-2.022h.556l.005 2.865h-.631l-.004-1.911h.12l-.975 1.608h-.299l-.996-1.608h.141v1.911h-.63ZM23.497 35.167h1.399v.516h-1.399v-.516Zm.05 1.18h1.581v.531H22.88v-2.865h2.195v.532h-1.527v1.801ZM25.754 36.878v-2.865h2.05l-.004.54h-1.535l.153-.15.004 2.475h-.668ZM27.402 36.878l1.294-2.865h.664l1.3 2.865h-.706L28.89 34.35h.266l-1.067 2.53h-.688Zm.647-.614.178-.503h1.494l.183.503h-1.855ZM30.885 35.982v-.512h1.174v.512h-1.174ZM33.186 36.878v-2.476l.154.152h-1.08v-.54h2.52v.54H33.7l.15-.152v2.476h-.664ZM35.903 35.167h1.398v.516h-1.398v-.516Zm.05 1.18h1.58v.531h-2.248v-2.865h2.195v.532h-1.527v1.801ZM38.16 36.878v-2.865h1.257c.26 0 .484.043.672.127.188.082.334.2.436.356a.99.99 0 0 1 .154.557.982.982 0 0 1-.154.552.994.994 0 0 1-.436.36 1.676 1.676 0 0 1-.672.123h-.884l.299-.299v1.09h-.672Zm.672-1.015-.299-.315h.847c.207 0 .362-.044.464-.13a.453.453 0 0 0 .154-.365.458.458 0 0 0-.154-.368c-.102-.088-.257-.131-.464-.131h-.847l.299-.316v1.625ZM41.205 36.878v-2.865h.556l1.237 2.022h-.295l1.216-2.022h.556l.004 2.865h-.63l-.005-1.911h.12l-.975 1.608h-.298l-.996-1.608h.14v1.911h-.63Z"/><path fill="#7FE2E2" d="M26.263 28.443c0 2.13-1.752 3.858-3.912 3.858s-3.912-1.727-3.912-3.858c0-2.13 1.752-3.858 3.912-3.858s3.912 1.728 3.912 3.858Z"/><path fill="#FF1601" d="M44.561 28.443c0 2.13-1.81 3.858-4.044 3.858-2.233 0-4.044-1.727-4.044-3.858 0-2.13 1.81-3.858 4.044-3.858 2.234 0 4.044 1.728 4.044 3.858Z"/><path fill="#4BA6A9" d="M35.412 28.443c0 2.13-1.78 3.858-3.978 3.858-2.197 0-3.978-1.727-3.978-3.858 0-2.13 1.781-3.858 3.978-3.858s3.978 1.728 3.978 3.858Z"/><path fill="#fff" fill-rule="evenodd" d="M40.516 30.993a.111.111 0 0 1-.064-.02l-.261-.19a.106.106 0 0 1-.023-.15.109.109 0 0 1 .151-.023l.198.144.199-.142a.11.11 0 0 1 .151.024.106.106 0 0 1-.024.149l-.263.188a.11.11 0 0 1-.064.02Zm1.428-.665a.108.108 0 0 1-.102-.09.107.107 0 0 1 .09-.122l.242-.04.037-.238a.108.108 0 0 1 .123-.09c.06.01.1.063.09.121l-.048.317a.108.108 0 0 1-.09.09l-.32.05c-.008.002-.015.002-.023.002Zm-2.862-.002-.01-.001-.322-.048a.107.107 0 0 1-.091-.088l-.051-.317a.106.106 0 0 1 .09-.122c.059-.01.114.03.123.088l.04.24.242.036c.06.009.1.063.091.121a.108.108 0 0 1-.112.09Zm1.444-.128a1.767 1.767 0 0 1-1.779-1.754c0-.969.797-1.755 1.78-1.755.981 0 1.778.786 1.778 1.755 0 .968-.797 1.754-1.779 1.754Zm0-.213c.863 0 1.563-.69 1.563-1.541s-.7-1.541-1.563-1.541c-.862 0-1.563.69-1.563 1.54 0 .851.701 1.542 1.563 1.542Zm-2.292-1.176a.109.109 0 0 1-.091-.045l-.19-.26a.105.105 0 0 1 0-.125l.192-.258a.11.11 0 0 1 .152-.022.106.106 0 0 1 .023.149l-.146.195.144.197a.106.106 0 0 1-.024.148.108.108 0 0 1-.06.02Zm4.566 0a.106.106 0 0 1-.084-.17l.145-.196-.147-.195a.106.106 0 0 1 .023-.15.11.11 0 0 1 .151.023l.194.258a.105.105 0 0 1 0 .126l-.19.26a.11.11 0 0 1-.092.044Zm-3.415-.35a.108.108 0 0 1-.108-.106c0-.603.48-1.12 1.18-1.12.059 0 .108.047.108.106a.107.107 0 0 1-.109.107c-.579 0-.963.422-.963.907 0 .06-.049.107-.108.107Zm2.938-1.32a.108.108 0 0 1-.112-.09l-.037-.24-.243-.038a.107.107 0 0 1-.09-.122.108.108 0 0 1 .124-.089l.321.05a.107.107 0 0 1 .09.09l.049.317a.107.107 0 0 1-.102.123Zm-3.604-.001-.021-.001a.107.107 0 0 1-.09-.122l.05-.317a.107.107 0 0 1 .092-.088l.321-.048a.107.107 0 1 1 .032.211l-.243.036-.039.24a.107.107 0 0 1-.102.089Zm1.54-.841a.107.107 0 0 1-.091-.044.106.106 0 0 1 .023-.149l.261-.19a.11.11 0 0 1 .128 0l.263.188c.048.034.06.1.024.149a.11.11 0 0 1-.151.023l-.2-.142-.197.144a.108.108 0 0 1-.06.02ZM22.45 30.601c-1.058 0-1.428-.721-1.348-1.605.078-.875.59-1.931 1.295-2.687a.073.073 0 0 1 .106-.001c.93.952 1.383 2.012 1.373 2.844-.01.841-.5 1.449-1.426 1.449Zm0-.15c.836 0 1.268-.531 1.278-1.301.01-.732-.366-1.677-1.165-2.561l-.11-.118-.197.23c-.556.7-.941 1.578-1.007 2.309-.074.823.25 1.442 1.201 1.442Zm-.226-.495a.06.06 0 0 1-.015-.002c-.412-.09-.696-.497-.594-.974a.074.074 0 0 1 .088-.057c.04.008.065.048.056.088-.085.397.148.724.482.797a.075.075 0 0 1-.017.148ZM32.143 30.732a.084.084 0 0 1-.035-.008.092.092 0 0 1-.05-.121l.247-.576-.137-.224-.171.398a.094.094 0 0 1-.123.049.092.092 0 0 1-.05-.121l.224-.521-.524-.857-.008.781a.093.093 0 0 1-.094.092.094.094 0 0 1-.093-.094l.008-.787-.56.844.197.538a.093.093 0 0 1-.093.124.093.093 0 0 1-.082-.06l-.15-.41-.153.231.204.558a.093.093 0 0 1-.093.124.094.094 0 0 1-.083-.061l-.156-.428-.192.288a.093.093 0 0 1-.156-.102l.196-.295-.469.02a.093.093 0 1 1-.007-.186l.603-.025.168-.252-.49.02a.094.094 0 0 1-.097-.09.093.093 0 0 1 .09-.096l.589-.024.55-.792-.674.329a.093.093 0 0 1-.125-.042.092.092 0 0 1 .042-.124l.636-.311h-.953l-.356.464a.093.093 0 0 1-.08.037.093.093 0 0 1-.07-.15l.271-.351h-.24l-.356.464a.094.094 0 0 1-.13.018.092.092 0 0 1-.019-.13l.27-.352h-.36a.093.093 0 0 1-.094-.093c0-.051.042-.093.093-.093h.387l-.276-.392a.093.093 0 0 1 .023-.129c.042-.03.1-.02.13.023l.351.498h.246l-.276-.392a.093.093 0 0 1 .153-.106l.352.498h.96l-.648-.342a.092.092 0 0 1-.039-.126.093.093 0 0 1 .126-.038l.642.34-.568-.819-.537-.052a.093.093 0 1 1 .018-.184l.498.047-.12-.196-.628-.06a.093.093 0 1 1 .018-.185l.489.047-.214-.35a.092.092 0 0 1 .031-.127.094.094 0 0 1 .129.03l.198.325.171-.399a.094.094 0 0 1 .123-.049c.047.02.07.075.049.122l-.224.52.117.19.167-.39a.094.094 0 0 1 .122-.048c.048.02.07.074.05.122l-.22.511.536.876.008-.776a.093.093 0 0 1 .186.002l-.008.789.58-.872-.208-.567a.093.093 0 0 1 .056-.119.094.094 0 0 1 .12.056l.16.437.142-.216-.203-.555a.093.093 0 0 1 .056-.119.094.094 0 0 1 .12.056l.155.425.184-.276a.094.094 0 0 1 .13-.027.093.093 0 0 1 .026.129l-.19.286.472-.02a.093.093 0 1 1 .008.186l-.607.025-.136.205.46-.019a.094.094 0 0 1 .097.09.093.093 0 0 1-.09.096l-.558.023-.59.849.675-.33a.094.094 0 0 1 .125.043.093.093 0 0 1-.043.124l-.634.31h.944l.367-.48a.093.093 0 0 1 .131-.017c.041.031.05.09.018.13l-.281.367h.245l.368-.48a.093.093 0 0 1 .148.113l-.281.367h.364c.052 0 .093.042.093.093a.093.093 0 0 1-.093.093h-.368l.266.377c.03.042.02.1-.023.13a.097.097 0 0 1-.051.016.094.094 0 0 1-.078-.04l-.342-.483h-.252l.266.377c.03.042.02.1-.023.13a.097.097 0 0 1-.051.016.094.094 0 0 1-.079-.04l-.34-.483h-.977l.65.343c.046.024.063.08.038.125a.093.093 0 0 1-.126.038l-.641-.338.558.802.532.052a.093.093 0 1 1-.018.184l-.49-.047.173.282.568.054c.051.005.089.05.084.102a.093.093 0 0 1-.102.083l-.429-.04.171.279a.092.092 0 0 1-.066.14.092.092 0 0 1-.093-.044l-.193-.314-.195.453a.093.093 0 0 1-.086.057Z" clip-rule="evenodd"/></svg>