<svg xmlns="http://www.w3.org/2000/svg" fill="none" viewBox="0 0 1366 274"><path fill="#fff" d="M273.2 137c0 75.663-61.158 137-136.6 137S0 212.663 0 137 61.158 0 136.6 0s136.6 61.337 136.6 137ZM819.6 137c0 75.663-61.158 137-136.6 137s-136.6-61.337-136.6-137S607.558 0 683 0s136.6 61.337 136.6 137Z"/><path fill="#fff" d="M546.4 137c0 75.663-61.158 137-136.6 137s-136.6-61.337-136.6-137S334.358 0 409.8 0s136.6 61.337 136.6 137ZM1092.8 137c0 75.663-61.16 137-136.6 137-75.442 0-136.6-61.337-136.6-137S880.758 0 956.2 0c75.44 0 136.6 61.337 136.6 137ZM1366 137c0 75.663-61.16 137-136.6 137s-136.6-61.337-136.6-137S1153.96 0 1229.4 0 1366 61.337 1366 137Z"/></svg>