<svg version="1.1" xmlns="http://www.w3.org/2000/svg">
	<symbol fill="none" viewBox="0 0 8 8" id="icon-arrow-small">
		<path fill="currentColor" d="M6.8.6A.6.6 0 0 1 8 .6V8a1.2 1.2 0 0 1-1.2-1.2V.6Z"/>
		<path fill="currentColor" d="M.6 8a.6.6 0 0 1 0-1.2h6.2A1.2 1.2 0 0 1 8 8H.6Z"/>
		<path fill="currentColor" d="M.424 1.273a.6.6 0 0 1 .849-.849l6.162 6.162a.6.6 0 1 1-.849.849L.424 1.273Z"/>
	</symbol>
	<symbol fill="none" viewBox="0 0 33 34" id="icon-calc">
		<path stroke="currentColor" stroke-linecap="round" stroke-linejoin="round" d="M26.278 7.222 6.722 26.778m3.556-12.445v-7.11m-3.556 3.555h7.111m5.334 12.444h7.11M9.034 33h14.934c2.987 0 4.48 0 5.62-.581a5.333 5.333 0 0 0 2.332-2.331c.581-1.14.581-2.634.581-5.621V9.533c0-2.987 0-4.48-.581-5.62a5.333 5.333 0 0 0-2.331-2.332C28.448 1 26.954 1 23.967 1H9.033c-2.987 0-4.48 0-5.62.581A5.333 5.333 0 0 0 1.08 3.912C.5 5.052.5 6.546.5 9.533v14.934c0 2.987 0 4.48.581 5.62a5.333 5.333 0 0 0 2.331 2.332C4.552 33 6.046 33 9.033 33Z"/>
	</symbol>
	<symbol fill="none" viewBox="0 0 23 23" id="icon-cart">
		<path stroke="currentColor" stroke-linecap="round" stroke-linejoin="round" stroke-width="2" d="M1 1h1.365c.257 0 .385 0 .489.047a.522.522 0 0 1 .222.192c.061.095.08.222.116.475l.494 3.442m0 0 1.1 8.032c.139 1.019.209 1.528.454 1.912.215.338.525.607.89.774.416.19.933.19 1.968.19h8.94c.985 0 1.477 0 1.88-.176.355-.156.659-.406.879-.724.249-.36.341-.84.525-1.803l1.383-7.219c.065-.338.098-.508.05-.64a.52.52 0 0 0-.229-.276c-.122-.07-.295-.07-.642-.07H3.686Zm5.672 15.583c0 .574-.468 1.039-1.045 1.039a1.042 1.042 0 0 1-1.045-1.04c0-.573.468-1.038 1.045-1.038s1.045.465 1.045 1.039Zm8.357 0c0 .574-.467 1.039-1.044 1.039a1.042 1.042 0 0 1-1.045-1.04c0-.573.468-1.038 1.045-1.038s1.044.465 1.044 1.039Z"/>
	</symbol>
	<symbol fill="none" viewBox="0 0 10 11" id="icon-city-geo">
		<path stroke="currentColor" stroke-linecap="round" stroke-linejoin="round" d="M5 6a1.5 1.5 0 1 0 0-3 1.5 1.5 0 0 0 0 3Z"/>
		<path stroke="currentColor" stroke-linecap="round" stroke-linejoin="round" d="M5 10.5c2-2 4-3.79 4-6a4 4 0 1 0-8 0c0 2.21 2 4 4 6Z"/>
	</symbol>
	<symbol fill="none" viewBox="0 0 25 21" id="icon-comparison">
		<rect width="5.19" height="9" x="18.255" y="10.778" stroke="currentColor" stroke-width="2" rx="2"/>
		<rect width="5.19" height="13.889" x="9.628" y="5.889" stroke="currentColor" stroke-width="2" rx="2"/>
		<rect width="5.19" height="18.778" x="1" y="1" stroke="currentColor" stroke-width="2" rx="2"/>
	</symbol>
	<symbol fill="none" viewBox="0 0 18 14" id="icon-email">
		<path stroke="currentColor" stroke-linecap="round" stroke-linejoin="round" d="m1 3.625 6.532 4.287c.529.347.793.52 1.081.587.254.06.52.06.774 0 .288-.067.552-.24 1.081-.587L17 3.625m-12.16 9.75h8.32c1.344 0 2.016 0 2.53-.245.451-.216.818-.56 1.048-.984.262-.48.262-1.11.262-2.371v-4.8c0-1.26 0-1.89-.262-2.371a2.33 2.33 0 0 0-1.048-.984c-.514-.245-1.186-.245-2.53-.245H4.84c-1.344 0-2.016 0-2.53.245a2.33 2.33 0 0 0-1.048.984C1 3.084 1 3.714 1 4.975v4.8c0 1.26 0 1.89.262 2.371.23.424.597.768 1.048.984.514.245 1.186.245 2.53.245Z"/>
	</symbol>
	<symbol fill="none" viewBox="0 0 26 23" id="icon-fav">
		<path stroke="currentColor" stroke-linecap="round" stroke-linejoin="round" stroke-width="2" d="M12.992 3.55c-2.4-2.79-6.4-3.541-9.406-.986C.58 5.119.156 9.39 2.517 12.413c1.714 2.194 6.46 6.513 8.933 8.715.536.477.804.716 1.118.81.272.082.576.082.848 0 .314-.094.582-.333 1.118-.81 2.472-2.202 7.219-6.52 8.932-8.715 2.361-3.022 1.99-7.32-1.068-9.85C19.34.037 15.39.76 12.992 3.55Z" clip-rule="evenodd"/>
	</symbol>
	<symbol fill="none" viewBox="0 0 16 15" id="icon-login">
		<path stroke="currentColor" stroke-linecap="round" stroke-linejoin="round" d="M3.321 12.707A2.8 2.8 0 0 1 5.9 11h4.2a2.8 2.8 0 0 1 2.579 1.707M10.8 5.75a2.8 2.8 0 1 1-5.6 0 2.8 2.8 0 0 1 5.6 0ZM15 7.5a7 7 0 1 1-14 0 7 7 0 0 1 14 0Z"/>
	</symbol>
	<symbol fill="none" viewBox="0 0 225 108" id="icon-logo">
		<path fill="#121D2E" d="M3.11 108V82.832h4.789l10.651 17.761h-2.538l10.473-17.761h4.79L31.31 108h-5.433l-.035-16.791h1.036l-8.4 14.13h-2.573l-8.578-14.13h1.215V108H3.11ZM43.566 92.97H55.61v4.531H43.566v-4.53Zm.428 10.356h13.618V108H38.24V82.832h18.908v4.674H43.994v15.82ZM63.004 108V82.832h17.657l-.036 4.746H67.4l1.323-1.33.035 21.752h-5.754ZM77.195 108l11.152-25.168h5.719L105.253 108h-6.076l-9.15-22.22h2.287L83.13 108h-5.934Zm5.576-5.393 1.537-4.423h12.867l1.573 4.423H82.77ZM107.197 100.126v-4.495h10.115v4.495h-10.115ZM127.021 108V86.247l1.322 1.33h-9.293v-4.745h21.696v4.746h-9.293l1.286-1.33V108h-5.718ZM150.422 92.97h12.045v4.531h-12.045v-4.53Zm.429 10.356h13.617V108h-19.372V82.832h18.908v4.674h-13.153v15.82ZM169.86 108V82.832h10.83c2.24 0 4.17.371 5.79 1.114 1.62.72 2.871 1.762 3.753 3.128.882 1.367 1.322 2.996 1.322 4.89 0 1.87-.44 3.488-1.322 4.854-.882 1.366-2.133 2.421-3.753 3.164-1.62.719-3.55 1.079-5.79 1.079h-7.613l2.573-2.625V108h-5.79Zm5.79-8.917-2.573-2.768h7.291c1.787 0 3.122-.384 4.003-1.15.882-.768 1.323-1.835 1.323-3.2 0-1.391-.441-2.47-1.323-3.237-.881-.767-2.216-1.15-4.003-1.15h-7.291l2.573-2.769v14.274ZM196.09 108V82.832h4.789l10.651 17.761h-2.537l10.472-17.761h4.79L224.29 108h-5.432l-.036-16.791h1.036l-8.399 14.13h-2.573l-8.579-14.13h1.216V108h-5.433Z"/>
		<path fill="#7FE2E2" d="M67.386 33.894c0 18.718-15.085 33.893-33.693 33.893C15.085 67.787 0 52.612 0 33.894 0 15.174 15.085 0 33.693 0 52.3 0 67.386 15.175 67.386 33.894Z"/>
		<path fill="#FF1601" d="M225 33.894c0 18.718-15.596 33.893-34.835 33.893S155.33 52.612 155.33 33.894C155.33 15.174 170.926 0 190.165 0S225 15.175 225 33.894Z"/>
		<path fill="#4BA6A9" d="M146.193 33.894c0 18.718-15.341 33.893-34.264 33.893-18.924 0-34.264-15.175-34.264-33.893C77.665 15.174 93.005 0 111.929 0c18.923 0 34.264 15.175 34.264 33.894Z"/>
		<path fill="#fff" fill-rule="evenodd" d="M190.151 56.298a.946.946 0 0 1-.547-.186l-2.252-1.669a.941.941 0 0 1-.197-1.313.926.926 0 0 1 1.303-.197l1.704 1.265 1.715-1.253a.933.933 0 0 1 1.304.21.945.945 0 0 1-.211 1.31l-2.266 1.653a.933.933 0 0 1-.553.18Zm12.299-5.848a.937.937 0 0 1-.877-.79.938.938 0 0 1 .771-1.074l2.095-.34.313-2.101a.933.933 0 1 1 1.845.277l-.419 2.786a.936.936 0 0 1-.774.786l-2.764.443a.814.814 0 0 1-.19.013Zm-24.647-.017a.536.536 0 0 1-.093-.008l-2.769-.423a.93.93 0 0 1-.782-.774l-.439-2.785a.933.933 0 0 1 .772-1.072.927.927 0 0 1 1.065.778l.336 2.103 2.093.317a.937.937 0 0 1 .784 1.068.933.933 0 0 1-.967.796Zm12.441-1.122c-8.461 0-15.322-6.903-15.322-15.413 0-8.51 6.861-15.417 15.322-15.417 8.456 0 15.324 6.907 15.324 15.417S198.7 49.31 190.244 49.31Zm0-1.875c7.428 0 13.46-6.066 13.46-13.538 0-7.475-6.032-13.54-13.46-13.54-7.428 0-13.461 6.066-13.461 13.54 0 7.472 6.033 13.538 13.461 13.538Zm-19.746-10.331a.931.931 0 0 1-.784-.39l-1.642-2.28a.94.94 0 0 1 .003-1.107l1.661-2.265a.934.934 0 1 1 1.503 1.115l-1.257 1.712 1.242 1.727a.94.94 0 0 1-.726 1.488Zm39.33 0a.936.936 0 0 1-.516-.178.945.945 0 0 1-.206-1.31l1.244-1.727-1.259-1.712a.944.944 0 0 1 .197-1.311.927.927 0 0 1 1.302.197l1.665 2.264a.94.94 0 0 1 .003 1.107l-1.642 2.28a.941.941 0 0 1-.788.39Zm-29.414-3.065a.938.938 0 0 1-.935-.938c0-5.296 4.145-9.846 10.162-9.846a.938.938 0 0 1 0 1.875c-4.985 0-8.296 3.707-8.296 7.97a.937.937 0 0 1-.931.94Zm25.304-11.599a.933.933 0 0 1-.966-.798l-.313-2.105-2.093-.336a.94.94 0 0 1-.773-1.073.932.932 0 0 1 1.067-.781l2.764.446a.932.932 0 0 1 .774.786l.419 2.784a.94.94 0 0 1-.879 1.077Zm-31.041-.015a.935.935 0 0 1-.957-1.085l.439-2.78a.93.93 0 0 1 .782-.775l2.769-.423a.932.932 0 0 1 1.06.788.934.934 0 0 1-.784 1.066l-2.093.319-.336 2.103a.929.929 0 0 1-.88.787Zm13.266-7.392a.939.939 0 0 1-.591-1.692l2.252-1.67a.928.928 0 0 1 1.1-.004l2.266 1.654c.419.3.51.888.211 1.31a.931.931 0 0 1-1.304.206l-1.715-1.25-1.704 1.265a.907.907 0 0 1-.515.181ZM34.548 52.851c-9.12 0-12.302-6.335-11.616-14.101.678-7.685 5.079-16.966 11.152-23.607a.62.62 0 0 1 .914-.012c8.018 8.37 11.915 17.678 11.828 24.986-.092 7.394-4.303 12.734-12.278 12.734Zm0-1.313c7.196 0 10.923-4.672 11.007-11.438.08-6.425-3.154-14.73-10.035-22.5l-.951-1.033-1.698 2.014c-4.787 6.16-8.104 13.868-8.672 20.29-.637 7.232 2.159 12.667 10.35 12.667ZM32.6 47.186a.512.512 0 0 1-.126-.02c-3.557-.791-6-4.367-5.118-8.559a.636.636 0 0 1 .757-.502.653.653 0 0 1 .484.778c-.734 3.485 1.276 6.36 4.147 7.002.342.076.56.428.486.783a.651.651 0 0 1-.63.518ZM118.038 54a.71.71 0 0 1-.309-.067.815.815 0 0 1-.427-1.068l2.129-5.055-1.183-1.969-1.474 3.498a.807.807 0 0 1-.745.497.725.725 0 0 1-.312-.07.81.81 0 0 1-.422-1.065l1.924-4.575-4.517-7.526-.065 6.86a.81.81 0 0 1-.811.808.815.815 0 0 1-.799-.826l.068-6.918-4.828 7.414 1.698 4.728a.818.818 0 0 1-.479 1.045.8.8 0 0 1-1.032-.484l-1.289-3.593-1.317 2.025 1.759 4.898a.821.821 0 0 1-.481 1.045.814.814 0 0 1-.318.049.81.81 0 0 1-.716-.537l-1.35-3.758-1.648 2.532a.8.8 0 0 1-1.114.235.825.825 0 0 1-.23-1.132l1.687-2.594-4.036.17a.807.807 0 0 1-.835-.783.811.811 0 0 1 .768-.85l5.196-.216 1.443-2.217-4.209.174a.812.812 0 0 1-.838-.784.812.812 0 0 1 .772-.846l5.07-.21 4.741-6.957-5.81 2.889a.801.801 0 0 1-1.075-.371.814.814 0 0 1 .366-1.09l5.478-2.73h-8.214l-3.065 4.08a.8.8 0 0 1-1.13.153.824.824 0 0 1-.153-1.141l2.328-3.094H96.17l-3.069 4.082a.801.801 0 0 1-1.127.153.823.823 0 0 1-.156-1.141l2.328-3.094h-3.115a.811.811 0 0 1-.804-.817c0-.45.361-.815.805-.815h3.33l-2.38-3.442a.823.823 0 0 1 .198-1.135.799.799 0 0 1 1.122.2l3.028 4.377h2.121L96.07 29.5a.824.824 0 0 1 .2-1.135.795.795 0 0 1 1.12.2l3.027 4.377h8.272l-5.583-3.005a.82.82 0 0 1-.332-1.104.795.795 0 0 1 1.085-.335l5.532 2.978-4.894-7.188-4.63-.453a.81.81 0 0 1-.724-.887.814.814 0 0 1 .879-.737l4.297.42-1.037-1.72-5.414-.528a.816.816 0 0 1-.725-.892.805.805 0 0 1 .878-.732l4.218.41-1.844-3.074a.823.823 0 0 1 .27-1.12.8.8 0 0 1 1.105.273l1.705 2.845 1.478-3.502a.803.803 0 0 1 1.057-.431.822.822 0 0 1 .423 1.071l-1.929 4.573 1.003 1.67 1.441-3.429a.802.802 0 0 1 1.058-.427.82.82 0 0 1 .423 1.071l-1.895 4.495 4.616 7.693.07-6.814a.806.806 0 0 1 .811-.808.809.809 0 0 1 .795.823l-.068 6.93 4.986-7.664-1.786-4.977a.824.824 0 0 1 .483-1.046.804.804 0 0 1 1.031.49l1.376 3.838 1.233-1.89-1.752-4.875a.824.824 0 0 1 .483-1.048.806.806 0 0 1 1.032.49l1.339 3.738 1.582-2.43a.8.8 0 0 1 1.116-.234.823.823 0 0 1 .23 1.128l-1.637 2.518 4.061-.173a.808.808 0 0 1 .835.782c.02.45-.325.83-.768.848l-5.221.22-1.172 1.8 3.955-.165a.815.815 0 0 1 .063 1.628l-4.801.203-5.083 7.461 5.812-2.895a.806.806 0 0 1 1.077.372.824.824 0 0 1-.366 1.096l-5.466 2.719h8.131l3.166-4.21a.793.793 0 0 1 1.127-.152c.352.27.42.784.151 1.14l-2.421 3.222h2.11l3.168-4.21a.793.793 0 0 1 1.126-.152.82.82 0 0 1 .152 1.14l-2.421 3.222h3.136a.81.81 0 0 1 .805.815.81.81 0 0 1-.805.817h-3.168l2.292 3.312a.822.822 0 0 1-.196 1.137.825.825 0 0 1-.447.15.805.805 0 0 1-.673-.352l-2.942-4.247h-2.168l2.29 3.312a.821.821 0 0 1-.195 1.137.83.83 0 0 1-.447.15.807.807 0 0 1-.673-.352l-2.94-4.245h-8.407l5.6 3.01c.391.213.54.708.33 1.106a.798.798 0 0 1-.781.43.784.784 0 0 1-.305-.095l-5.528-2.973 4.807 7.05 4.584.449a.81.81 0 0 1 .725.888.807.807 0 0 1-.878.733l-4.22-.411 1.486 2.475 4.895.475a.814.814 0 0 1 .723.892.805.805 0 0 1-.876.733l-3.697-.359 1.475 2.456a.816.816 0 0 1-.569 1.228.79.79 0 0 1-.804-.384l-1.658-2.756-1.68 3.98a.798.798 0 0 1-.741.497Z" clip-rule="evenodd"/>
	</symbol>
	<symbol fill="none" viewBox="0 0 20 21" id="icon-search">
		<path stroke="currentColor" stroke-linecap="round" stroke-linejoin="round" stroke-width="2" d="m19 19.375-4.35-4.35M17 9.375a8 8 0 1 1-16 0 8 8 0 0 1 16 0Z"/>
	</symbol>
</svg>
